bicep_curl
version=1
nRows=28
nColumns=17
inDegrees=yes

# SIMM Motion File Header:
name bicep_curl
datacolumns 17
datarows 28
otherdata 1
range 0.03 0.04831337
endheader
time	/jointset/r_shoulder/r_shoulder_elev/value	/jointset/r_shoulder/r_shoulder_elev/speed	/jointset/r_elbow/r_elbow_flex/value	/jointset/r_elbow/r_elbow_flex/speed	/forceset/TRIlong/activation	/forceset/TRIlong/fiber_length	/forceset/TRIlat/activation	/forceset/TRIlat/fiber_length	/forceset/TRImed/activation	/forceset/TRImed/fiber_length	/forceset/BIClong/activation	/forceset/BIClong/fiber_length	/forceset/BICshort/activation	/forceset/BICshort/fiber_length	/forceset/BRA/activation	/forceset/BRA/fiber_length
0.03	-0.00151260857914537	-0.11811868721299	7.79943095805297	259.954687908637	0.02423285	0.13916534	0.02	0.07317037	0.02	0.06823019	0.02	0.14713069	0.02	0.14649147	0.09403951	0.09133465
0.03000339	-0.00151300904955868	-0.118147027138793	7.80031220449689	259.954718480951	0.0242328475649988	0.139165675906668	0.02	0.0731707066303393	0.02	0.0682305250848474	0.02	0.147130496729036	0.02	0.146491271114475	0.0940394560900344	0.0913344295219989
0.03000678	-0.00151300914467569	-0.118175068553047	7.80119398664819	259.954749246722	0.0242324976050426	0.139166005986771	0.02	0.0731710367139462	0.02	0.0682308650394095	0.0200066175671171	0.147130306633685	0.0200869403769159	0.146491069950644	0.0940345469928602	0.0913341995489322
0.03002375	-0.00151518816779591	-0.118315748254285	7.80560595550321	259.954896603526	0.0242315370225979	0.139167692259428	0.02	0.0731727255344894	0.02	0.0682325470628324	0.0200246439142157	0.14712933112679	0.0203236512972618	0.146490055527533	0.0940210214806663	0.091333096598551
0.03010856	-0.00152553623527208	-0.118979571838615	7.82765080713025	259.955502511144	0.0242267307008143	0.139176108543223	0.02	0.0731811482106646	0.02	0.068240927013768	0.0201138438751722	0.147124464092862	0.0214928045660591	0.146484675551245	0.0939534708123013	0.091327589405255
0.03053261	-0.00157625881903013	-0.121628023165397	7.93788580101409	259.956144481182	0.0242027663353182	0.139218413106111	0.02	0.0732233490382449	0.02	0.068282927989468	0.0205387668074039	0.147099626042922	0.0270165240057196	0.146451178583009	0.0936172562085205	0.091300128404716
0.03157646	-0.00170541816951526	-0.125981595898988	8.2092394721123	259.949972858364	0.0241443546018	0.139323292879416	0.02	0.073327440713113	0.02	0.0683865054319666	0.0214492669742133	0.14703614261754	0.0386341359579941	0.146340924926981	0.0928003808299205	0.0912330659640336
0.03262031	-0.00183801924254371	-0.129556129168952	8.48058117418563	259.941649853961	0.0240867754583026	0.139428628051278	0.02	0.073431900837625	0.02	0.0684905441753985	0.0221958414285078	0.14697111731237	0.0479991335186548	0.146214911442716	0.0919985580355461	0.091166569291326
0.03359913	-0.00196657466270476	-0.134053985474818	8.73501270324658	259.937613209757	0.0240335082618943	0.139527635417216	0.02	0.0735300394176766	0.02	0.0685881332352405	0.0227737716464012	0.146909616239118	0.055196533116357	0.146093741831917	0.0912600517199377	0.0911045714337917
0.03457794	-0.00210002223465642	-0.139885966673035	8.98943999838394	259.937789937636	0.0239809506492469	0.139626837235552	0.02	0.0736284279737947	0.02	0.0686861571347231	0.0232542128069607	0.146847886069723	0.0611781632540718	0.145973793670649	0.0905342222947969	0.0910428244614222
0.03555462	-0.0022395105219938	-0.146892128961805	9.24331826995993	259.941614435073	0.0239291951947543	0.139726015650217	0.02	0.0737268154614855	0.02	0.0687840053019573	0.0236530213617691	0.146786125043063	0.0661675330319835	0.145856974971492	0.0898223489421437	0.0909813971883995
0.03686704	-0.00243843242681307	-0.157770634911196	9.58447432716201	259.950544313667	0.0238607234544581	0.139859559126267	0.02	0.073859282061374	0.02	0.0689161809402825	0.0240857782032075	0.146702869193152	0.0716399961752159	0.145705588972263	0.0888848040952844	0.0908990841942145
0.03773819	-0.0025778200828929	-0.164441108085771	9.81092977295105	259.95493270783	0.0238159344187073	0.13994840184705	0.02	0.0739475869575447	0.02	0.0690037155337738	0.0243195567742534	0.146647385797052	0.0746391110811929	0.145608781633476	0.0882742854637891	0.0908445508856427
0.0388029	-0.00275709993428164	-0.17296117336204	10.0877105085583	259.959943925701	0.0237619059327713	0.140057152935816	0.02	0.0740555478972612	0.02	0.0691114140134226	0.024558084149179	0.146579278756988	0.0777464816143704	0.145494333523292	0.0875406023311896	0.0907780100631286
0.03985124	-0.00294184329044385	-0.180183447149148	10.3602352577741	259.960315562857	0.0237094716137498	0.140164423951185	0.02	0.0741621769993201	0.02	0.0692172211353339	0.0247508538804073	0.146511855459072	0.0803063602397085	0.145385553864443	0.086831365939483	0.0907125927187049
0.04	-0.00296834837408916	-0.180485451516426	10.3989052041197	259.958520660507	0.0237020890431888	0.14017965907924	0.02	0.0741773205232918	0.02	0.0692323805005931	0.0247752744491025	0.146502259262674	0.0806346041353848	0.145370420412582	0.0867317713862786	0.0907033152217185
0.04000843	-0.00297001592060661	-0.180520684703232	10.4010975470226	259.958456823791	0.0237016721769847	0.140180523654628	0.02	0.0741781781656854	0.02	0.0692332375752983	0.0247766438902223	0.146501715682438	0.0806529695021335	0.14536956418815	0.0867261335914496	0.0907027944472416
0.04001686	-0.0029717352051897	-0.180569539293533	10.4032885373574	259.958424513908	0.0237012522248779	0.140181393555262	0.02	0.0741790381258049	0.02	0.0692340974106575	0.024856742805586	0.146501163734014	0.080625524518424	0.145368704943642	0.0867329132339509	0.0907022643827037
0.040059	-0.0029789734435245	-0.180812547724603	10.4142427228001	259.958257054718	0.0236991723297089	0.140185707206309	0.02	0.0741833295938671	0.02	0.0692383759288658	0.0250769816093013	0.146498407522244	0.080592415039959	0.145364444888502	0.086738552125143	0.0906996415731484
0.04026974	-0.00301761321359566	-0.182031610074813	10.4690282623321	259.957388107132	0.0236887475118408	0.140207303528821	0.02	0.0742047886478696	0.02	0.0692597903076642	0.0261509805830386	0.146484142646558	0.0804272178748654	0.145343335248151	0.0867662056519311	0.0906864745874983
0.0413234	-0.00321246422724067	-0.188946007101392	10.7429315078455	259.955484582519	0.0236370827740695	0.140315369225688	0.02	0.0743121753220927	0.02	0.0693667841405434	0.0308972632280034	0.146404645948234	0.0796103203846591	0.145242822643485	0.086891401225091	0.0906202217359886
0.04252517	-0.00344576165661956	-0.199836793235272	11.0553416269784	259.964259048796	0.023579041799197	0.140438839822093	0.02	0.0744349987525143	0.02	0.0694888631502771	0.0352485604685414	0.146307211706617	0.0786966219396616	0.145136403047974	0.0870108051692733	0.0905440826600463
0.04359628	-0.00366620472815448	-0.212121631542228	11.3338023134778	259.981849265065	0.023528100655014	0.140549082853849	0.02	0.0745446460292678	0.02	0.0695984411903977	0.0383725845603668	0.146219455516573	0.0778981009180766	0.145047108732167	0.0870996301496632	0.0904759522692098
0.04445525	-0.00385334466849712	-0.223454748350201	11.5571271721539	260.001337542026	0.0234877789709424	0.140637614869655	0.02	0.0746327805814491	0.02	0.0696857677198398	0.0404635515382419	0.146149549949126	0.0772682903426162	0.144978400638506	0.0871607149143528	0.0904212199938383
0.04531421	-0.00405008131185141	-0.235150572952686	11.7804645017026	260.022311948779	0.0234479246830954	0.140726250372399	0.02	0.0747210118237909	0.02	0.0697737865623919	0.0422481607679023	0.14608031834958	0.0766477082406696	0.144911725059088	0.0872140104726338	0.0903664622097065
0.04640813	-0.00431556998237086	-0.249919845295426	12.0649229509895	260.048492802649	0.0233978276470311	0.140839280855151	0.02	0.0748335624058286	0.02	0.0698856419491333	0.0441511582939042	0.145993194288016	0.0758704714445776	0.144829125707368	0.0872721763174709	0.090296730318976
0.04750205	-0.00459629087989357	-0.263013662438802	12.3494070935227	260.06872776539	0.0233484721984914	0.140952478281822	0.02	0.0749463628333871	0.02	0.0699984002001348	0.0457126052288253	0.145907156331541	0.0751076065612516	0.144748484867079	0.0873210800606197	0.0902270438068168
0.04831337	-0.00481308215364447	-0.271239551504314	12.560409993919	260.07818182239	0.0233123311297812	0.141036538295243	0.02	0.0750301329047634	0.02	0.0700813804825165	0.0466880025020147	0.14584396292499	0.0745509217914504	0.144689635480865	0.0873522446702228	0.0901753970398189
